<svg xmlns="http://www.w3.org/2000/svg" xmlns:xlink="http://www.w3.org/1999/xlink" width="152" height="152" viewBox="0 0 152 152"><defs><filter id="a" x="50.184" y="96.491" width="96.17" height="88.509" filterUnits="userSpaceOnUse"><feOffset dx="3" dy="3" input="SourceAlpha"/><feGaussianBlur stdDeviation="10" result="b"/><feFlood flood-opacity="0.161"/><feComposite operator="in" in2="b"/><feComposite in="SourceGraphic"/></filter><filter id="c" x="-27" y="-27" width="173.346" height="183.491" filterUnits="userSpaceOnUse"><feOffset dx="3" dy="3" input="SourceAlpha"/><feGaussianBlur stdDeviation="10" result="d"/><feFlood flood-opacity="0.161"/><feComposite operator="in" in2="d"/><feComposite in="SourceGraphic"/></filter><clipPath id="f"><rect width="152" height="152"/></clipPath></defs><g id="e" clip-path="url(#f)"><path d="M-6961.864-2234.512h-54.023l22.979-28.5-8.184-19.759h5.2v-20.52h7.05v-6.253H-7010.8v3.324L-7032.255-2358h70.392a7.551,7.551,0,0,1,5.374,2.226,7.548,7.548,0,0,1,2.225,5.373v108.292a7.548,7.548,0,0,1-2.225,5.374A7.55,7.55,0,0,1-6961.864-2234.512Zm-25.026-56.141a7.234,7.234,0,0,0,3.057,6.178c1.972,1.42,4.886,2.171,8.427,2.171,7.113,0,11.708-3.518,11.708-8.961,0-4.355-2.423-6.808-7.625-7.719l-3.674-.631a7.678,7.678,0,0,1-2.771-.883,1.686,1.686,0,0,1-.865-1.51,1.85,1.85,0,0,1,.908-1.595,4.508,4.508,0,0,1,2.45-.594,4.915,4.915,0,0,1,2.684.7,2.383,2.383,0,0,1,1.139,1.952h7.18c-.038-5.3-4.206-8.46-11.15-8.46-6.592,0-11.021,3.549-11.021,8.832,0,4.223,2.695,7.017,7.588,7.866l3.543.631a9.781,9.781,0,0,1,3.008.879,1.519,1.519,0,0,1,.851,1.422,1.869,1.869,0,0,1-1.018,1.609,5.423,5.423,0,0,1-2.786.635,5.663,5.663,0,0,1-2.807-.691,2.627,2.627,0,0,1-1.386-1.833Zm-16.865,1.456-5.837-14.091h5.837v14.091Z" transform="translate(7106.266 2386.5)" fill="#dbdbdb"/><g transform="matrix(1, 0, 0, 1, 0, 0)" filter="url(#a)"><path d="M7778.278,3070l-22.988,28.509L7742.109,3070Z" transform="translate(-7664.93 -2946.51)" fill="#d42c3b"/></g><g transform="matrix(1, 0, 0, 1, 0, 0)" filter="url(#c)"><path d="M-7113.655-2309.509H-7219.4a7.55,7.55,0,0,1-5.374-2.226,7.55,7.55,0,0,1-2.226-5.374V-2425.4a7.546,7.546,0,0,1,2.226-5.374A7.55,7.55,0,0,1-7219.4-2433h54.594l51.151,123.491Zm-81.456-88.123-17.478,53.545h16.03l2.783-10.65h16.327l2.783,10.65h16.772l-17.478-53.545Zm14.8,31.8h-10.612l5.158-19.444h.3l5.158,19.444Z" transform="translate(7227 2433)" fill="#ff4757"/></g></g></svg>