<svg xmlns="http://www.w3.org/2000/svg" xmlns:xlink="http://www.w3.org/1999/xlink" width="152" height="152" viewBox="0 0 152 152"><defs><linearGradient id="a" x1="0.244" y1="0.031" x2="0.933" y2="1" gradientUnits="objectBoundingBox"><stop offset="0" stop-color="#56f782"/><stop offset="1" stop-color="#68c7eb"/></linearGradient><clipPath id="c"><rect width="152" height="152"/></clipPath></defs><g id="b" clip-path="url(#c)"><path d="M-11474.456,184h-57.4c-.164,0-.333-.006-.488-.019-.559.013-1.107.019-1.652.019a75.567,75.567,0,0,1-29.587-5.973,75.735,75.735,0,0,1-24.156-16.289,75.651,75.651,0,0,1-16.283-24.159A75.4,75.4,0,0,1-11610,108a75.39,75.39,0,0,1,5.976-29.581,75.64,75.64,0,0,1,16.283-24.156,75.733,75.733,0,0,1,24.156-16.287A75.578,75.578,0,0,1-11534,32a75.524,75.524,0,0,1,29.583,5.972,75.612,75.612,0,0,1,24.148,16.287,75.686,75.686,0,0,1,16.291,24.156A75.556,75.556,0,0,1-11458,108a75.8,75.8,0,0,1-20.058,51.445l9.175,14.391a6.546,6.546,0,0,1,.212,6.739A6.509,6.509,0,0,1-11474.456,184Zm-79.024-55.155h0c1.565,9.725,4.2,18,7.6,23.942,3.472,6.08,7.532,9.293,11.743,9.293s8.275-3.214,11.756-9.293c3.395-5.94,6.023-14.219,7.6-23.942Zm45.754,0c-2.032,13.169-5.807,23.876-10.927,30.964a54.047,54.047,0,0,0,34.547-30.963h-23.62Zm-76.418,0a54.072,54.072,0,0,0,34.551,30.964c-5.114-7.081-8.9-17.789-10.938-30.963h-23.612Zm77.273-34.981h0c.48,4.765.723,9.473.723,13.992s-.242,9.227-.723,13.993h25.057a53.615,53.615,0,0,0,1.885-13.993,54.906,54.906,0,0,0-1.855-13.993Zm-47.53,0a137.735,137.735,0,0,0-.722,13.993,137.728,137.728,0,0,0,.722,13.993h40.513a136.145,136.145,0,0,0,.727-13.993,136.341,136.341,0,0,0-.727-13.993h-40.513Zm-32.077,0a54.367,54.367,0,0,0-1.877,13.993,54.363,54.363,0,0,0,1.877,13.993h25.056c-.463-4.875-.7-9.584-.7-13.993,0-4.5.242-9.2.722-13.993h-25.081Zm67.8-37.96c5.115,7.077,8.9,17.783,10.931,30.963h23.62a54.051,54.051,0,0,0-34.551-30.963Zm-15.466-2.272c-4.211,0-8.271,3.214-11.743,9.3-3.394,5.938-6.031,14.216-7.6,23.94h38.693c-1.574-9.724-4.2-18-7.6-23.94C-11525.865,56.847-11529.916,53.632-11534.141,53.632Zm-15.475,2.272a54,54,0,0,0-34.529,30.963h23.612c2.023-13.16,5.8-23.867,10.917-30.963Z" transform="translate(11610 -32.001)" fill="url(#a)"/></g></svg>